<?xml version="1.0" encoding="UTF-8"?>
<svg id="Layer_2" xmlns="http://www.w3.org/2000/svg" viewBox="0 0 916.92 271.68">
  <defs>
    <style>
      .cls-1 {
        fill: #010101;
      }

      .cls-2 {
        opacity: .1;
      }

      .cls-2, .cls-3 {
        fill: #fff;
      }

      .cls-4 {
        fill: #a6a5a5;
      }
    </style>
  </defs>
  <g id="Layer_1-2" data-name="Layer_1">
    <g>
      <path class="cls-3" d="M910.84,239.61c0,14.37-11.65,26.02-26.03,26.02,0,0-.02,0-.03,0H32.14c-14.39.02-26.07-11.63-26.09-26.02V32.1c.02-14.39,11.69-26.05,26.09-26.05h852.64c14.39,0,26.05,11.66,26.05,26.05h0s0,207.51,0,207.51h0Z"/>
      <path class="cls-4" d="M884.79,271.68H32.14c-17.73,0-32.1-14.35-32.14-32.07V32.11C.03,14.38,14.4.01,32.14,0h852.64c17.73.02,32.1,14.38,32.14,32.11v207.5c.01,17.69-14.43,32.07-32.13,32.07h0Z"/>
      <path class="cls-1" d="M910.84,239.61c0,14.37-11.65,26.02-26.03,26.02,0,0-.02,0-.03,0H32.14c-14.39.02-26.07-11.63-26.09-26.02V32.1c.02-14.39,11.69-26.05,26.09-26.05h852.64c14.39,0,26.05,11.66,26.05,26.05h0s0,207.51,0,207.51h0Z"/>
      <path class="cls-2" d="M884.79,0h-456.71l178.88,271.68h277.82c17.73-.01,32.1-14.37,32.14-32.09V32.11c-.03-17.73-14.4-32.09-32.14-32.11Z"/>
      <path class="cls-3" d="M211.28,138.28c-.19-21.42,17.54-31.83,18.35-32.32-10.04-14.64-25.61-16.64-31.08-16.8-13.07-1.38-25.75,7.82-32.41,7.82s-17.05-7.69-28.1-7.46c-14.22.22-27.53,8.45-34.83,21.24-15.06,26.07-3.83,64.37,10.6,85.44,7.22,10.33,15.65,21.84,26.69,21.44,10.8-.44,14.83-6.88,27.87-6.88s16.7,6.88,27.96,6.62c11.59-.18,18.89-10.37,25.85-20.78,8.34-11.82,11.69-23.48,11.82-24.07-.27-.09-22.5-8.58-22.73-34.25h0ZM190.01,75.3c5.81-7.26,9.78-17.14,8.68-27.17-8.41.37-18.92,5.81-24.98,12.92-5.36,6.26-10.14,16.52-8.91,26.17,9.44.7,19.14-4.76,25.2-11.91h0Z"/>
      <path class="cls-3" d="M367.71,208.48h-15.09l-8.27-25.97h-28.74l-7.88,25.97h-14.7l28.48-88.43h17.59l28.61,88.43h0ZM341.86,171.61l-7.48-23.09c-.79-2.36-2.28-7.91-4.46-16.66h-.27c-.88,3.76-2.28,9.32-4.2,16.66l-7.35,23.09h23.75ZM440.81,175.81c0,10.84-2.94,19.42-8.84,25.71-5.28,5.6-11.84,8.4-19.66,8.4-8.45,0-14.52-3.01-18.21-9.04v33.46h-14.17v-68.66c0-6.81-.18-13.79-.53-20.96h12.46l.79,10.11h.27c4.73-7.61,11.9-11.42,21.52-11.42,7.52,0,13.8,2.97,18.83,8.92,5.02,5.96,7.54,13.79,7.54,23.5h0ZM426.37,176.33c0-6.21-1.4-11.32-4.2-15.36-3.06-4.19-7.18-6.29-12.34-6.29-3.5,0-6.67,1.17-9.51,3.48-2.84,2.33-4.71,5.36-5.58,9.12-.39,1.41-.61,2.85-.66,4.31v10.64c0,4.63,1.42,8.54,4.27,11.75,2.84,3.19,6.54,4.79,11.09,4.79,5.34,0,9.49-2.07,12.46-6.17,2.98-4.11,4.47-9.53,4.47-16.27ZM514.16,175.81c0,10.84-2.94,19.42-8.84,25.71-5.28,5.6-11.84,8.4-19.67,8.4-8.45,0-14.52-3.01-18.21-9.04v33.46h-14.17v-68.66c0-6.81-.18-13.79-.53-20.96h12.46l.79,10.11h.27c4.72-7.61,11.89-11.42,21.52-11.42,7.52,0,13.8,2.97,18.84,8.92,5.01,5.96,7.54,13.79,7.54,23.5h0ZM499.72,176.33c0-6.21-1.4-11.32-4.21-15.36-3.06-4.19-7.16-6.29-12.32-6.29-3.5,0-6.67,1.17-9.52,3.48-2.84,2.33-4.7,5.36-5.57,9.12-.43,1.75-.66,3.18-.66,4.31v10.64c0,4.63,1.43,8.54,4.26,11.75,2.84,3.18,6.54,4.79,11.1,4.79,5.34,0,9.5-2.07,12.46-6.17,2.98-4.11,4.47-9.53,4.47-16.27ZM596.18,183.67c0,7.53-2.63,13.65-7.86,18.37-5.76,5.16-13.79,7.74-24.09,7.74-9.52,0-17.15-1.83-22.9-5.51l3.28-11.81c6.21,3.68,13.04,5.51,20.47,5.51,5.34,0,9.5-1.21,12.46-3.61,2.97-2.41,4.47-5.62,4.47-9.63,0-3.59-1.24-6.6-3.68-9.06-2.45-2.45-6.51-4.72-12.2-6.82-15.49-5.77-23.24-14.22-23.24-25.33,0-7.26,2.74-13.2,8.2-17.84,5.46-4.64,12.71-6.96,21.72-6.96,8.05,0,14.75,1.4,20.08,4.2l-3.56,11.55c-5.01-2.71-10.67-4.07-16.99-4.07-5,0-8.92,1.23-11.72,3.67-2.36,2.19-3.56,4.85-3.56,8.01,0,3.49,1.36,6.39,4.07,8.66,2.35,2.09,6.65,4.37,12.85,6.82,7.62,3.07,13.21,6.64,16.8,10.75,3.61,4.11,5.4,9.23,5.4,15.34h0ZM643.15,155.35h-15.62v30.96c0,7.87,2.75,11.8,8.27,11.8,2.53,0,4.63-.21,6.29-.66l.39,10.76c-2.79,1.04-6.47,1.57-11.02,1.57-5.6,0-9.97-1.71-13.13-5.12-3.14-3.42-4.73-9.14-4.73-17.19v-32.14h-9.3v-10.63h9.3v-11.67l13.92-4.2v15.87h15.62v10.66h0ZM713.48,176.07c0,9.8-2.8,17.85-8.4,24.14-5.86,6.48-13.64,9.71-23.36,9.71s-16.82-3.1-22.38-9.3c-5.56-6.21-8.33-14.04-8.33-23.48s2.87-17.97,8.59-24.27c5.74-6.3,13.46-9.45,23.17-9.45s16.88,3.11,22.56,9.32c5.44,6.02,8.14,13.79,8.14,23.34h0ZM698.79,176.4c0-5.84-1.26-10.85-3.8-15.04-2.97-5.06-7.22-7.59-12.73-7.59s-10.03,2.53-12.99,7.59c-2.54,4.19-3.8,9.29-3.8,15.31s1.26,10.87,3.8,15.05c3.06,5.06,7.34,7.59,12.87,7.59s9.66-2.58,12.73-7.72c2.61-4.29,3.91-9.34,3.91-15.19h0ZM759.56,157.17c-1.47-.27-2.97-.4-4.47-.39-4.98,0-8.84,1.87-11.55,5.65-2.35,3.32-3.54,7.52-3.54,12.59v33.46h-14.17v-43.68c.01-6.69-.12-13.39-.41-20.07h12.34l.52,12.2h.39c1.5-4.19,3.85-7.57,7.08-10.11,2.96-2.21,6.55-3.41,10.24-3.42,1.31,0,2.49.09,3.54.26v13.52s.01,0,.01,0ZM822.93,173.58c.04,2.15-.14,4.31-.52,6.43h-42.51c.16,6.3,2.22,11.12,6.17,14.45,3.58,2.96,8.21,4.45,13.9,4.45,6.29,0,12.04-1,17.2-3.01l2.22,9.83c-6.03,2.63-13.16,3.94-21.38,3.94-9.89,0-17.65-2.91-23.3-8.72-5.64-5.81-8.46-13.63-8.46-23.42s2.63-17.61,7.88-24c5.5-6.82,12.94-10.23,22.3-10.23s16.15,3.41,20.88,10.23c3.74,5.4,5.62,12.1,5.62,20.05h0ZM809.42,169.91c.1-4.21-.83-7.83-2.75-10.89-2.45-3.95-6.23-5.91-11.29-5.91-4.63,0-8.41,1.92-11.28,5.77-2.36,3.06-3.76,6.74-4.19,11.02h29.51s0,.01,0,.01Z"/>
      <path class="cls-3" d="M311.52,96.47c-3.94,0-7.35-.19-10.19-.52v-42.75c3.97-.61,7.98-.92,12-.9,16.25,0,23.73,7.99,23.73,21.02,0,15.03-8.84,23.15-25.54,23.15ZM313.9,57.78c-2.19,0-4.06.13-5.61.45v32.5c.84.13,2.45.19,4.71.19,10.65,0,16.71-6.06,16.71-17.41,0-10.12-5.48-15.73-15.8-15.73ZM360.39,96.79c-9.16,0-15.09-6.84-15.09-16.12s6.06-16.57,15.61-16.57c9.03,0,15.09,6.51,15.09,16.06s-6.25,16.63-15.61,16.63h0ZM360.65,69.19c-5.03,0-8.25,4.7-8.25,11.28s3.29,11.16,8.19,11.16,8.19-5.03,8.19-11.29-3.22-11.15-8.12-11.15h0ZM428.23,64.75l-9.8,31.34h-6.39l-4.06-13.61c-1.01-3.33-1.85-6.71-2.52-10.12h-.13c-.51,3.42-1.48,6.84-2.51,10.12l-4.32,13.61h-6.45l-9.23-31.34h7.16l3.55,14.9c.84,3.55,1.54,6.9,2.13,10.06h.13c.51-2.64,1.35-5.93,2.58-9.99l4.45-14.96h5.68l4.26,14.64c1.03,3.55,1.87,7.03,2.52,10.32h.19c.45-3.22,1.16-6.64,2.13-10.32l3.81-14.64h6.84ZM464.32,96.08h-6.97v-17.99c0-5.54-2.13-8.32-6.32-8.32s-6.97,3.55-6.97,7.67v18.64h-6.97v-22.38c0-2.77-.07-5.74-.26-8.96h6.13l.33,4.84h.19c1.87-3.35,5.68-5.48,9.94-5.48,6.58,0,10.9,5.03,10.9,13.22v18.76s0,0,0,0ZM483.52,96.08h-6.97v-45.71h6.97v45.71ZM508.92,96.79c-9.15,0-15.09-6.84-15.09-16.12s6.06-16.57,15.61-16.57c9.03,0,15.09,6.51,15.09,16.06,0,9.79-6.25,16.63-15.61,16.63h0ZM509.18,69.19c-5.03,0-8.25,4.7-8.25,11.28s3.3,11.16,8.18,11.16,8.19-5.03,8.19-11.29c0-6.38-3.21-11.15-8.12-11.15h0ZM551.99,96.08l-.51-3.61h-.19c-2.13,2.9-5.23,4.32-9.17,4.32-5.62,0-9.6-3.93-9.6-9.22,0-7.73,6.71-11.73,18.32-11.73v-.58c0-4.13-2.19-6.19-6.51-6.19-3.09,0-5.8.78-8.19,2.33l-1.42-4.58c2.9-1.81,6.51-2.71,10.76-2.71,8.19,0,12.32,4.32,12.32,12.96v11.54c0,3.16.14,5.61.45,7.48h-6.28s0,0,0,0ZM551.03,80.47c-7.74,0-11.62,1.87-11.62,6.32,0,3.29,2,4.9,4.78,4.9,3.54,0,6.84-2.7,6.84-6.38v-4.84ZM591.64,96.08l-.33-5.03h-.19c-2,3.8-5.36,5.74-10.06,5.74-7.56,0-13.15-6.64-13.15-15.99s5.8-16.7,13.72-16.7c4.19,0,7.16,1.42,8.84,4.26h.14v-17.99h6.97v37.27c0,3.03.07,5.87.26,8.45h-6.2ZM590.61,77.64c0-4.39-2.9-8.13-7.34-8.13-5.16,0-8.32,4.58-8.32,11.02s3.28,10.64,8.18,10.64c4.38,0,7.48-3.81,7.48-8.32v-5.22h0ZM641.79,96.79c-9.15,0-15.09-6.84-15.09-16.12s6.06-16.57,15.61-16.57c9.03,0,15.09,6.51,15.09,16.06,0,9.79-6.25,16.63-15.61,16.63h0ZM642.05,69.19c-5.02,0-8.25,4.7-8.25,11.28s3.29,11.16,8.18,11.16,8.19-5.03,8.19-11.29c.01-6.38-3.21-11.15-8.12-11.15h0ZM694.86,96.08h-6.97v-17.99c0-5.54-2.13-8.32-6.32-8.32s-6.96,3.55-6.96,7.67v18.64h-6.97v-22.38c0-2.77-.07-5.74-.26-8.96h6.13l.33,4.84h.19c1.87-3.35,5.68-5.48,9.93-5.48,6.58,0,10.91,5.03,10.91,13.22v18.77ZM741.72,69.97h-7.66v15.22c0,3.87,1.34,5.81,4.05,5.81,1.23,0,2.26-.13,3.09-.33l.19,5.29c-1.35.52-3.16.78-5.4.78-5.49,0-8.77-3.03-8.77-10.96v-15.8h-4.57v-5.22h4.57v-5.74l6.84-2.07v7.8h7.66v5.23h0ZM778.6,96.08h-6.96v-17.86c0-5.61-2.12-8.45-6.32-8.45-3.61,0-6.97,2.45-6.97,7.42v18.89h-6.96v-45.71h6.96v18.82h.14c2.19-3.42,5.37-5.1,9.42-5.1,6.63,0,10.69,5.16,10.69,13.35v18.64h0ZM816.37,82.09h-20.9c.13,5.93,4.06,9.28,9.88,9.28,3.09,0,5.94-.52,8.45-1.48l1.08,4.84c-2.96,1.29-6.45,1.93-10.51,1.93-9.8,0-15.61-6.19-15.61-15.79s5.94-16.83,14.82-16.83c8.01,0,13.03,5.93,13.03,14.9.05,1.06-.04,2.12-.24,3.16h0ZM809.99,77.12c0-4.84-2.44-8.25-6.89-8.25-4,0-7.16,3.48-7.62,8.25h14.51Z"/>
    </g>
  </g>
</svg>